<svg t="1648471947557" class="icon" viewBox="0 0 1024 1024" version="1.1" xmlns="http://www.w3.org/2000/svg" p-id="4884" width="64" height="64"><path d="M465.1 34.8h94.1v590.4h-94.1z" fill="#EA4468" p-id="4885"></path><path d="M465.1 34.8h94.1v87.3h-94.1z" fill="#FF525F" p-id="4886"></path><path d="M559.2 635.1h-94.1c-5.5 0-10-4.5-10-10V34.8c0-5.5 4.5-10 10-10h94.1c5.5 0 10 4.5 10 10v590.4c0 5.5-4.5 9.9-10 9.9z m-84.1-20h74.1V44.8h-74.1v570.3z" fill="#322E63" p-id="4887"></path><path d="M689.4 986.1H334.6c-5.4 0-10.9-9.3-12.2-21L247.9 307c-2.6-23 1-42 20.1-42h492.7c16.8 0 18 19 15.4 42l-74.4 658.2c-1.4 11.6-6.8 20.9-12.3 20.9z" fill="#76C49A" p-id="4888"></path><path d="M763.3 381H260.7l-15.4-88.9h533.4z" fill="#4E98A0" p-id="4889"></path><path d="M689.4 996.1H334.6c-12.9 0-20.5-15.5-22.1-29.9L238 308.1c-2.3-20.7 0.4-35.1 8.3-44 3.7-4.1 10.5-9.1 21.7-9.1h492.7c9.5 0 15.3 4.2 18.4 7.8 9.4 10.5 8.8 28.8 6.9 45.3l-74.4 658.2c-1.7 14.3-9.3 29.8-22.2 29.8z m-353.1-20h351.4c1.2-1.6 3.3-5.7 4-12.1l74.4-658.2c2.4-21.3-0.2-27.8-1.9-29.7-0.3-0.4-1-1.1-3.5-1.1H268c-4.1 0-5.8 1.3-6.8 2.4-1.8 2-5.6 8.7-3.4 28.4L332.3 964c0.7 6.4 2.8 10.5 4 12.1z" fill="#322E63" p-id="4890"></path><path d="M811 321H211c-6.6 0-12-5.4-12-12v-16c0-26.5 21.5-48 48-48h528c26.5 0 48 21.5 48 48v16c0 6.6-5.4 12-12 12z" fill="#FFFFFF" p-id="4891"></path><path d="M753.1 161H271.2c-13.3 0-24 10.7-24 24v60h529.9v-60c0-13.3-10.7-24-24-24z" fill="#B9D5EA" p-id="4892"></path><path d="M753.1 161H271.2c-13.3 0-24 10.7-24 24v32h529.9v-32c0-13.3-10.7-24-24-24z" fill="#FFFFFF" p-id="4893"></path><path d="M811 331H211c-12.1 0-22-9.9-22-22v-16c0-32 26-58 58-58h528c32 0 58 26 58 58v16c0 12.1-9.9 22-22 22z m-564-76c-21 0-38 17-38 38v16c0 1.1 0.9 2 2 2h600c1.1 0 2-0.9 2-2v-16c0-21-17-38-38-38H247z" fill="#322E63" p-id="4894"></path><path d="M787.1 255H237.2v-70c0-18.7 15.3-34 34-34h481.9c18.7 0 34 15.3 34 34v70z m-529.9-20h509.9v-50c0-7.7-6.3-14-14-14H271.2c-7.7 0-14 6.3-14 14v50z" fill="#322E63" p-id="4895"></path><path d="M512 600.3m-136.5 0a136.5 136.5 0 1 0 273 0 136.5 136.5 0 1 0-273 0Z" fill="#76C49A" p-id="4896"></path><path d="M512.2 746.8c-5.5 0-10-4.5-10-10V464.2c0-5.5 4.5-10 10-10s10 4.5 10 10v272.6c0 5.6-4.5 10-10 10z" fill="#FFFFFF" p-id="4897"></path><path d="M435.3 710.5c-2.6 0-5.1-1-7.1-2.9-3.9-3.9-3.9-10.2 0-14.1l83.9-83.9 83.9 83.9c3.9 3.9 3.9 10.2 0 14.1-3.9 3.9-10.2 3.9-14.1 0l-69.8-69.8-69.8 69.8c-1.9 1.9-4.4 2.9-7 2.9z" fill="#FFFFFF" p-id="4898"></path><path d="M631.3 650.9c-2.6 0-5.1-1-7.1-2.9l-112-112.1L400.1 648c-3.9 3.9-10.2 3.9-14.1 0-3.9-3.9-3.9-10.2 0-14.1l126.2-126.2 126.2 126.2c3.9 3.9 3.9 10.2 0 14.1-2 1.9-4.6 2.9-7.1 2.9z" fill="#FFFFFF" p-id="4899"></path><path d="M512 746.8c-80.8 0-146.5-65.7-146.5-146.5S431.2 453.8 512 453.8s146.5 65.7 146.5 146.5S592.8 746.8 512 746.8z m0-273c-69.8 0-126.5 56.8-126.5 126.5S442.2 726.8 512 726.8 638.5 670 638.5 600.3 581.8 473.8 512 473.8z" fill="#FFFFFF" p-id="4900"></path></svg>
