<?xml version="1.0" standalone="no"?><!DOCTYPE svg PUBLIC "-//W3C//DTD SVG 1.1//EN" "http://www.w3.org/Graphics/SVG/1.1/DTD/svg11.dtd"><svg t="1651398638901" class="icon" viewBox="0 0 1024 1024" version="1.1" xmlns="http://www.w3.org/2000/svg" p-id="1099" xmlns:xlink="http://www.w3.org/1999/xlink" width="64" height="64"><defs><style type="text/css"></style></defs><path d="M301.99296 928.77824c4.66944-56.03328 14.47424-121.87648 29.41952-197.52448a14750.68928 14750.68928 0 0 0 43.42784-196.1216l5.60128 8.40704c3.7376-19.6096 8.40704-34.56 14.00832-44.83072 0 14.00832-3.7376 31.2832-11.20768 51.83488-10.27072 26.14784-15.872 43.42784-16.80896 51.82976-31.75424 159.70304-47.63136 253.09184-47.63136 280.17664 0 21.4784-5.60128 36.8896-16.80896 46.22848z m-47.63136-273.17248a410.86976 410.86976 0 0 1 15.4112-112.06656l2.80064 1.39776c0 37.36064-6.0672 74.25024-18.21184 110.6688z m7.00416 9.80992l8.40704-72.84736h2.80064l-11.20768 72.84736z m-19.95264 90.89024l-1.23392-0.59392-1.1776-5.9392 0.03072-0.74752c0.3584-7.86944 1.9968-17.85856 4.90496-29.96224l1.32096-5.31968c4.1984-16.34304 6.30272-28.25216 6.30272-35.72224l1.40288 1.40288-11.55072 76.88192z m-2.08896-1.03424l-1.31584-0.65536-4.6592-3.74784-1.39776-4.20352 1.39776-2.80064 5.6064 5.60128 0.0512 0.3072-0.0512 2.49344 0.36864 3.00544z m-29.78816 193.11616h-7.00416c3.7376-15.872 8.40704-46.6944 14.00832-92.45696 4.66944-38.28736 10.27072-68.63872 16.80896-91.05408-12.13952 81.2544-20.07552 142.42304-23.81312 183.51104z m79.85152-46.22848l8.40192-30.81728 1.40288 5.60128-9.8048 25.216z m31.80032 105.40544l0.27136-0.93184c1.65376-4.89472 4.03968-8.89856 7.15264-12.01152 4.66944-4.66944 31.2832-10.74176 79.8464-18.21184 43.89376-6.53824 73.3184-9.80992 88.25856-9.80992l2.80064-2.80064c1.8688 0.93696 4.1984 2.80064 7.00416 5.6064l4.1984 1.39776c49.50016-4.66944 86.85568-7.936 112.0768-9.8048 1.86368 0 20.54144-3.7376 56.03328-11.20768 23.3472-5.60128 42.02496-8.40704 56.03328-8.40704 14.00832 0 23.81312 2.33472 29.41952 7.00416a516.1984 516.1984 0 0 0 40.62208-12.60544c16.81408-5.60128 28.9536-12.13952 36.42368-19.6096-34.55488-34.56-64.44032-51.83488-89.6512-51.83488-32.6912 0-63.04256 7.00416-91.0592 21.01248-8.40704 0-18.67776 1.8688-30.8224 5.6064-15.872 3.7376-25.68192 6.0672-29.4144 7.00416-108.3392 17.7408-189.58848 26.61376-243.75296 26.61376h-2.80064c5.60128-128.88064 34.08384-277.8368 85.4528-446.8736 13.07136-42.03008 19.6096-63.9744 19.6096-65.8432l-5.60128-2.80576c6.53824-20.54144 11.6736-36.8896 15.4112-49.02912l-2.80576-11.20768c12.13952-34.55488 19.6096-61.16864 22.41536-79.8464 14.00832-38.29248 25.216-67.24096 33.61792-86.85568 0.93696 3.7376 1.40288 7.4752 1.40288 11.20768 14.94528-36.42368 23.3472-56.03328 25.216-58.83904C537.33888 65.37216 517.26336 20.54656 488.30976 0h-2.80064c-7.4752 0-12.61056 0.46592-15.4112 1.40288l-1.40288 4.1984L458.89024 0 451.8912 2.80064l-2.80064 7.00416c-4.66944-0.93184-7.936-2.33472-9.8048-4.1984v2.80064c-5.6064-0.93696-9.5744-1.40288-11.90912-1.40288-2.33472 0-3.50208-1.40288-3.50208-4.1984-26.14784 0-46.2336 8.3968-60.2368 25.21088-22.41536 27.0848-42.496 83.11808-60.2368 168.10496a12303.872 12303.872 0 0 1-29.41952 182.1184c-4.66944 27.07968-15.4112 75.17696-32.22016 144.2816-14.94528 59.776-24.28416 107.40224-28.01664 142.89408-6.53824 58.83392-11.2128 105.99936-14.00832 141.48608-7.4752 28.9536-11.2128 67.70688-11.2128 116.2752l2.80576 2.80064 1.40288 5.60128-2.80576 8.40704c0 10.27072 1.40288 17.27488 4.20352 21.01248l-0.03072-0.01536L184.32 953.99424v4.1984c0 0.93696 0.70144 3.2768 2.0992 7.00928 1.40288 3.7376 2.57024 6.0672 3.50208 7.00416l2.80576 7.00416c9.33888 5.60128 22.17984 8.17152 38.52288 7.7056 16.34304-0.47104 27.78112 1.16736 34.31936 4.89984l-1.39776 14.00832 7.00416-7.00416h1.39776l2.80576-1.39776h4.1984c1.8688 1.8688 3.7376 4.1984 5.6064 7.00416l-5.6064 8.40192a1937.6896 1937.6896 0 0 1 15.4112-19.6096c2.80064 0 5.60128 0.46592 8.40704 1.40288L295.00928 1024l3.0976-4.62336c5.04832-7.5264 9.38496-13.86496 13.0048-19.01056l2.08896-2.944 2.80064-1.40288 5.6064 5.6064-0.41984 5.9392z m-43.01312-236.672l0.256-2.36032c0.89088-7.77216 2.10432-16.64 3.64032-26.58816l0.72704-4.64384 6.58944-10.25024-6.4512 9.2928 0.09216-0.50176c0.3328-2.07872 0.68096-4.1984 1.03936-6.36416l1.11616-6.62528c8.40192-48.5632 13.07136-76.11392 14.00832-82.65216l-9.8048 35.0208c8.40192-45.76256 14.94016-85.91872 19.6096-120.4736 3.7376-6.53824 8.87296-11.2128 15.4112-14.00832l11.20768-37.82656c0 13.07648-4.66944 38.29248-14.00832 75.648-9.33888 42.02496-14.94528 69.5808-16.81408 82.65216-13.07136 126.08-28.48256 219.4688-46.22848 280.17152l-7.00416 1.40288c-0.93184-7.4752-1.39776-14.00832-1.39776-19.6096 0-61.6448 8.86784-119.07584 26.61376-172.30848l1.40288 8.40192-0.00512 11.6224z" fill="#f63434" p-id="1100"></path></svg>