<?xml version="1.0" standalone="no"?><!DOCTYPE svg PUBLIC "-//W3C//DTD SVG 1.1//EN" "http://www.w3.org/Graphics/SVG/1.1/DTD/svg11.dtd"><svg t="1647956523585" class="icon" viewBox="0 0 1024 1024" version="1.1" xmlns="http://www.w3.org/2000/svg" p-id="2346" xmlns:xlink="http://www.w3.org/1999/xlink" width="64" height="64"><defs><style type="text/css"></style></defs><path d="M806.74 567.31h59.96v59.96h-59.96z" fill="#333333" p-id="2347"></path><path d="M806.74 507.37h59.96v59.95h-59.96zM806.74 447.41h59.96v59.96h-59.96z" fill="#333333" p-id="2348"></path><path d="M806.74 387.47h59.96v59.95h-59.96zM746.79 687.22h59.95v59.96h-59.95zM746.79 627.27h59.95v59.95h-59.95z" fill="#333333" p-id="2349"></path><path d="M746.79 567.31h59.95v59.96h-59.95z" fill="#FF8D8D" p-id="2350"></path><path d="M746.79 507.37h59.95v59.95h-59.95zM746.79 447.41h59.95v59.96h-59.95z" fill="#E2E1B7" p-id="2351"></path><path d="M746.79 387.47h59.95v59.95h-59.95z" fill="#E2E1B7" p-id="2352"></path><path d="M746.79 327.51h59.95v59.96h-59.95zM746.79 267.56h59.95v59.95h-59.95zM686.84 747.17h59.96v59.95h-59.96z" fill="#333333" p-id="2353"></path><path d="M686.84 687.22h59.96v59.96h-59.96zM686.84 627.27h59.96v59.95h-59.96z" fill="#E2E1B7" p-id="2354"></path><path d="M686.84 567.31h59.96v59.96h-59.96z" fill="#FDFFE9" p-id="2355"></path><path d="M686.84 507.37h59.96v59.95h-59.96zM686.84 447.41h59.96v59.96h-59.96z" fill="#333333" p-id="2356"></path><path d="M686.84 387.47h59.96v59.95h-59.96z" fill="#FDFFE9" p-id="2357"></path><path d="M686.84 327.51h59.96v59.96h-59.96zM686.84 267.56h59.96v59.95h-59.96z" fill="#F2F4D3" p-id="2358"></path><path d="M686.84 207.61h59.96v59.96h-59.96zM626.89 747.17h59.95v59.95h-59.95z" fill="#333333" p-id="2359"></path><path d="M626.89 687.22h59.95v59.96h-59.95z" fill="#E2E1B7" p-id="2360"></path><path d="M626.89 627.27h59.95v59.95h-59.95z" fill="#333333" p-id="2361"></path><path d="M626.89 567.31h59.95v59.96h-59.95z" fill="#FDFFE9" p-id="2362"></path><path d="M626.89 507.37h59.95v59.95h-59.95zM626.89 447.41h59.95v59.96h-59.95z" fill="#FDFFE9" p-id="2363"></path><path d="M626.89 387.47h59.95v59.95h-59.95zM626.89 327.51h59.95v59.96h-59.95z" fill="#FDFFE9" p-id="2364"></path><path d="M626.89 267.56h59.95v59.95h-59.95z" fill="#F2F4D3" p-id="2365"></path><path d="M626.89 207.61h59.95v59.96h-59.95zM566.94 807.12h59.96v59.96h-59.96z" fill="#333333" p-id="2366"></path><path d="M566.94 747.17h59.96v59.95h-59.96z" fill="#E2E1B7" p-id="2367"></path><path d="M566.94 687.22h59.96v59.96h-59.96z" fill="#FDFFE9" p-id="2368"></path><path d="M566.94 627.27h59.96v59.95h-59.96z" fill="#333333" p-id="2369"></path><path d="M566.94 567.31h59.96v59.96h-59.96z" fill="#FDFFE9" p-id="2370"></path><path d="M566.94 507.37h59.96v59.95h-59.96zM566.94 447.41h59.96v59.96h-59.96z" fill="#FDFFE9" p-id="2371"></path><path d="M566.94 387.47h59.96v59.95h-59.96zM566.94 327.51h59.96v59.96h-59.96zM566.94 267.56h59.96v59.95h-59.96z" fill="#FDFFE9" p-id="2372"></path><path d="M566.94 207.61h59.96v59.96h-59.96z" fill="#FDFFE9" p-id="2373"></path><path d="M566.94 147.66h59.96v59.95h-59.96zM506.99 807.12h59.95v59.96h-59.95z" fill="#333333" p-id="2374"></path><path d="M506.99 747.17h59.95v59.95h-59.95z" fill="#E2E1B7" p-id="2375"></path><path d="M506.99 687.22h59.95v59.96h-59.95z" fill="#FDFFE9" p-id="2376"></path><path d="M506.99 627.27h59.95v59.95h-59.95z" fill="#333333" p-id="2377"></path><path d="M506.99 567.31h59.95v59.96h-59.95z" fill="#FDFFE9" p-id="2378"></path><path d="M506.99 507.37h59.95v59.95h-59.95zM506.99 447.41h59.95v59.96h-59.95z" fill="#FDFFE9" p-id="2379"></path><path d="M506.99 387.47h59.95v59.95h-59.95zM506.99 327.51h59.95v59.96h-59.95z" fill="#FDFFE9" p-id="2380"></path><path d="M506.99 267.56h59.95v59.95h-59.95z" fill="#333333" p-id="2381"></path><path d="M506.99 207.61h59.95v59.96h-59.95z" fill="#FDFFE9" p-id="2382"></path><path d="M506.99 147.66h59.95v59.95h-59.95zM447.03 807.12h59.96v59.96h-59.96z" fill="#333333" p-id="2383"></path><path d="M447.03 747.17h59.96v59.95h-59.96z" fill="#FFFFFA" p-id="2384"></path><path d="M447.03 687.22h59.96v59.96h-59.96zM447.03 627.27h59.96v59.95h-59.96zM447.03 567.31h59.96v59.96h-59.96z" fill="#FDFFE9" p-id="2385"></path><path d="M447.03 507.37h59.96v59.95h-59.96zM447.03 447.41h59.96v59.96h-59.96z" fill="#333333" p-id="2386"></path><path d="M447.03 387.47h59.96v59.95h-59.96z" fill="#FDFFE9" p-id="2387"></path><path d="M447.03 327.51h59.96v59.96h-59.96z" fill="#333333" p-id="2388"></path><path d="M447.03 267.56h59.96v59.95h-59.96z" fill="#070707" p-id="2389"></path><path d="M447.03 207.61h59.96v59.96h-59.96zM447.03 147.66h59.96v59.95h-59.96zM387.08 807.12h59.96v59.96h-59.96z" fill="#333333" p-id="2390"></path><path d="M387.08 747.17h59.96v59.95h-59.96z" fill="#FFFFFA" p-id="2391"></path><path d="M387.08 687.22h59.96v59.96h-59.96z" fill="#FDFFE9" p-id="2392"></path><path d="M387.08 627.27h59.96v59.95h-59.96z" fill="#FFAEAE" p-id="2393"></path><path d="M387.08 567.31h59.96v59.96h-59.96z" fill="#FF8D8D" p-id="2394"></path><path d="M387.08 507.37h59.96v59.95h-59.96zM387.08 447.41h59.96v59.96h-59.96z" fill="#FDFFE9" p-id="2395"></path><path d="M387.08 387.47h59.96v59.95h-59.96z" fill="#333333" p-id="2396"></path><path d="M387.08 327.51h59.96v59.96h-59.96zM387.08 267.56h59.96v59.95h-59.96z" fill="#070707" p-id="2397"></path><path d="M387.08 207.61h59.96v59.96h-59.96z" fill="#070707" p-id="2398"></path><path d="M387.08 147.66h59.96v59.95h-59.96zM327.13 747.17h59.95v59.95h-59.95z" fill="#333333" p-id="2399"></path><path d="M327.13 687.22h59.95v59.96h-59.95z" fill="#FFFFFA" p-id="2400"></path><path d="M327.13 627.27h59.95v59.95h-59.95z" fill="#FFD7D7" p-id="2401"></path><path d="M327.13 567.31h59.95v59.96h-59.95z" fill="#FFAEAE" p-id="2402"></path><path d="M327.13 507.37h59.95v59.95h-59.95z" fill="#FDFFE9" p-id="2403"></path><path d="M327.13 447.41h59.95v59.96h-59.95z" fill="#333333" p-id="2404"></path><path d="M327.13 387.47h59.95v59.95h-59.95z" fill="#1C1C1C" p-id="2405"></path><path d="M327.13 327.51h59.95v59.96h-59.95z" fill="#070707" p-id="2406"></path><path d="M327.13 267.56h59.95v59.95h-59.95z" fill="#1C1C1C" p-id="2407"></path><path d="M327.13 207.61h59.95v59.96h-59.95z" fill="#E5E5E5" p-id="2408"></path><path d="M267.18 747.17h59.96v59.95h-59.96z" fill="#333333" p-id="2409"></path><path d="M267.18 687.22h59.96v59.96h-59.96zM267.18 627.27h59.96v59.95h-59.96z" fill="#FFFFFA" p-id="2410"></path><path d="M267.18 567.31h59.96v59.96h-59.96z" fill="#FDFFE9" p-id="2411"></path><path d="M267.18 507.37h59.96v59.95h-59.96zM267.18 447.41h59.96v59.96h-59.96z" fill="#FFFFFA" p-id="2412"></path><path d="M267.18 387.47h59.96v59.95h-59.96z" fill="#333333" p-id="2413"></path><path d="M267.18 327.51h59.96v59.96h-59.96z" fill="#1C1C1C" p-id="2414"></path><path d="M267.18 267.56h59.96v59.95h-59.96z" fill="#E5E5E5" p-id="2415"></path><path d="M267.18 207.61h59.96v59.96h-59.96z" fill="#FFFFFA" p-id="2416"></path><path d="M207.23 687.22h59.95v59.96h-59.95zM207.23 627.27h59.95v59.95h-59.95z" fill="#333333" p-id="2417"></path><path d="M207.23 567.31h59.95v59.96h-59.95z" fill="#FFFFFA" p-id="2418"></path><path d="M207.23 507.37h59.95v59.95h-59.95zM207.23 447.41h59.95v59.96h-59.95z" fill="#333333" p-id="2419"></path><path d="M207.23 387.47h59.95v59.95h-59.95zM207.23 327.51h59.95v59.96h-59.95z" fill="#333333" p-id="2420"></path><path d="M207.23 267.56h59.95v59.95h-59.95z" fill="#FFFFFA" p-id="2421"></path><path d="M147.28 567.31h59.96v59.96h-59.96z" fill="#333333" p-id="2422"></path><path d="M147.28 507.37h59.96v59.95h-59.96zM147.28 447.41h59.96v59.96h-59.96z" fill="#333333" p-id="2423"></path><path d="M147.28 387.47h59.96v59.95h-59.96z" fill="#333333" p-id="2424"></path></svg>