<svg t="1649343360899" class="icon" viewBox="0 0 1024 1024" version="1.1" xmlns="http://www.w3.org/2000/svg" p-id="4952" width="64" height="64"><path d="M107.872 507.168S160 303.456 368.544 218.112c0 0 82.144-118.496 338.08-45.824 0 0 75.84 50.56 88.48 78.976 0 0 112.16 18.976 112.16 148.512 0 0 22.112 33.184 15.808 115.328l17.376 175.36-83.744 64.768-4.736-31.584s-80.576-121.664-85.312-159.552c0 0-22.112-17.376-22.112 25.28l22.112 66.336-614.56-47.616-44.224-100.928z" fill="#E14B4B" p-id="4953"></path><path d="M799.424 413.92a1154.496 1154.496 0 0 0-78.88-232.064c16.128 11.552 42.848 31.648 59.904 49.664a1070.08 1070.08 0 0 1 18.976 182.4zM566.784 239.104c7.008-0.384 13.088 2.464 18.4 7.008-6.048-2.464-12.32-4.736-18.4-7.008zM766.432 563.872c-2.272-1.536-21.6-14.592-21.792 25.024-8.544-11.36-15.744-24.256-23.904-35.84-22.752-32.608-55.744-56.672-87.968-80.192-61.632-44.928-125.12-90.624-198.304-112.224 36.032-1.888 71.104 11.008 104.64 24.064 66.368 25.792 134.784 55.552 178.592 111.488-0.192-37.536-20.288-71.68-39.808-103.712l-76.8-126.272c-4.352-7.2-9.664-14.976-15.936-20.096 28.448 10.816 55.936 24.064 77.344 45.312 28.448 28.256 42.656 67.296 55.168 105.408a2645.984 2645.984 0 0 1 48.768 167.04z" fill="#D03F3E" p-id="4954"></path><path d="M0.832 718.944c0-24.672-0.224 3.648-0.448-6.688-0.896 27.744-0.32-125.12 23.296-141.248 16.896-16.992 32.352-68.512 45.888-48.768 11.552-9.632 19.616 4.576 26.112-12.416 6.496-3.392 11.424-18.72 16.672-2.4 5.248-3.776 10.848 11.04 18.688 6.496 7.84 11.712 17.888 4.544 32.128 14.24 0 11.104 5.28-13.344 13.248-1.536 8 10.176 18.688 2.112 29.568-4.448 10.88-11.392 21.952-17.824 30.624-7.072 6.528 7.648 15.616 9.568 25.632-1.632 9.984-9.28 20.896-5.984 30.944 4.448 10.08 14.016 19.328 15.072 26.08 6.016 6.752 9.92 10.944-3.232 10.944 3.008 0 0.448 2.56 9.536 7.168-0.288 4.608-2.528 11.2 5.152 19.296-0.448 8.096 11.68 17.664-2.08 28.128 0.032 10.496-10.624 21.888-19.2 33.664 1.12 11.776-8.832 23.904-5.952 35.872 2.848 11.968-3.808 23.744-0.992 34.816 5.216 11.04-2.528 21.376 15.616 30.4 8.16 9.056-8.832 16.8-16.608 22.72 11.776 0-5.888 2.784 8.128 7.776 1.856 4.992 3.136 12.16-3.04 20.928 5.216 8.768-0.672 19.104 4 30.464 8.032 11.328-12.16 23.648 8.064 36.352 10.368 12.704 6.496 25.792 22.144 38.624 12.128 12.864-12.512 25.472 6.112 37.28 13.376 11.808 22.624 22.784 5.12 32.32 14.112 9.536 4.704 17.664 1.568 23.712 14.304 0 0.288 5.152 16.832 6.048 17.632 1.664 2.56 3.488 22.016 5.248 20.608 7.136 19.232 11.296 105.504-0.608 139.488 0-0.096-1.408-5.952-4.288 4.992-2.88 1.984-7.232-4.416-13.056 10.592-5.824 8.16-13.184 3.456-22.048 9.504-8.864 14.944-19.296 8.384-31.264 1.76-11.968-6.688-25.536-11.904-40.704-12.64 0-15.136-0.896-4.672-2.624-0.896-1.728 7.936-4.32-7.584-7.712-2.496-3.392-19.328-7.584 2.144-12.512-3.84-4.96-5.28-10.656 0.224-17.088-4.864-6.432 15.84-13.568-6.368-21.376-5.632-7.808-11.392-16.32-20.416-25.44-6.144-9.12 1.568-18.88-17.984-29.216-6.336-10.336-10.4-21.28 10.496-32.768-6.272-11.488 4.64-23.52-9.248-36.032-5.92-12.544-4.8-25.568 2.656-39.072-5.28-13.504 0.96-27.456 3.552-41.824-4.384-14.368-1.696-29.184-11.68-44.352-3.168-15.168-6.272-30.72-1.728-46.592-1.696-15.872-5.6-32.096-2.016-48.608 0.032-28.832-7.264-54.144-1.792-76.32 0.416-22.176 2.496-41.216-1.984-57.568-2.176-16.352-3.936-30.016-5.6-41.44-3.904-11.424 13.6-20.608-5.888-27.968-4.864-7.36-2.112-12.928-14.432-17.12-5.088-4.192-0.416-7.04-12.032-8.96-4.576-1.92-2.24-2.912 1.76-3.424-3.296-0.512 6.56-0.544 15.648-0.544-1.28 0 20.096-5.632 4.608-12.128-5.472-6.56 1.344-13.984 11.904-17.536-20.608zM1011.104 719.456c28.224 44.64 7.008 112.768-37.632 140.992a95.648 95.648 0 0 1-102.176-161.696c44.608-28.224 111.584-23.968 139.808 20.704z" fill="#DAE5EF" p-id="4955"></path><path d="M1007.584 823.52c-8.32 15.04-20.16 27.84-34.24 36.8-44.48 28.48-103.68 15.04-131.84-29.76-28.16-44.48-15.04-103.68 29.76-131.84 2.24-1.28 4.16-2.56 6.4-3.52-15.36 29.12-15.04 65.6 3.84 95.36a95.04 95.04 0 0 0 126.08 32.96zM882.048 697.152a6.304 6.304 0 0 0-0.224-3.84l-0.448 0.224 0.672 3.616z" fill="#CBD6E0" p-id="4956"></path></svg>
