<svg t="1648557390904" class="icon" viewBox="0 0 1024 1024" version="1.1" xmlns="http://www.w3.org/2000/svg" p-id="14483" width="32" height="32"><path d="M512 64c60.5 0 119.2 11.8 174.4 35.2 53.3 22.6 101.3 54.9 142.4 96 41.2 41.2 73.5 89.1 96 142.4C948.2 392.8 960 451.5 960 512s-11.8 119.2-35.2 174.4c-22.6 53.3-54.9 101.3-96 142.4-41.2 41.2-89.1 73.5-142.4 96C631.2 948.2 572.5 960 512 960s-119.2-11.8-174.4-35.2c-53.3-22.6-101.3-54.9-142.4-96-41.2-41.2-73.5-89.1-96-142.4C75.8 631.2 64 572.5 64 512s11.8-119.2 35.2-174.4c22.6-53.3 54.9-101.3 96-142.4s89.1-73.5 142.4-96C392.8 75.8 451.5 64 512 64m0-64C229.2 0 0 229.2 0 512s229.2 512 512 512 512-229.2 512-512S794.8 0 512 0z" p-id="14484" fill="#f63434"></path><path d="M724.1 345.1l-379 379c-12.4 12.4-32.8 12.4-45.3 0-12.4-12.4-12.4-32.8 0-45.3l379-379c12.4-12.4 32.8-12.4 45.3 0 12.5 12.5 12.5 32.9 0 45.3z" p-id="14485" fill="#f63434"></path><path d="M345.1 299.9l379 379c12.4 12.4 12.4 32.8 0 45.3-12.4 12.4-32.8 12.4-45.3 0l-379-379c-12.4-12.4-12.4-32.8 0-45.3 12.5-12.5 32.9-12.5 45.3 0z" p-id="14486" fill="#f63434"></path></svg>
