<svg t="1648557156923" class="icon" viewBox="0 0 1024 1024" version="1.1" xmlns="http://www.w3.org/2000/svg" p-id="8261" width="32" height="32"><path d="M925.6 337.9c-22.6-53.3-54.8-101.2-96-142.3-41.1-41.1-89-73.4-142.3-96C632.1 76.2 573.5 64.4 513 64.4S393.9 76.2 338.7 99.6c-53.3 22.6-101.2 54.8-142.3 96-41.1 41.1-73.4 89-96 142.3C77 393.1 65.2 451.8 65.2 512.2c0 60.4 11.8 119.1 35.2 174.3 22.6 53.3 54.8 101.2 96 142.3 41.1 41.1 89 73.4 142.3 96C393.9 948.2 452.6 960 513 960s119.1-11.8 174.3-35.2c53.3-22.6 101.2-54.8 142.3-96 41.1-41.1 73.4-89 96-142.3 23.4-55.2 35.2-113.9 35.2-174.3 0-60.4-11.8-119.1-35.2-174.3zM513 879.1c-202.3 0-366.9-164.6-366.9-366.9S310.7 145.3 513 145.3c202.3 0 366.9 164.6 366.9 366.9S715.4 879.1 513 879.1z" p-id="8262" fill="#54b780"></path><path d="M664.7 520.8c-17.6-15.6-44.7-13.9-60.3 3.7l-49.2 55.7V368.5c0-1.3-0.1-2.7-0.2-4 0.1-1.4 0.2-2.9 0.2-4.4v-30.3c0-23.2-19-42.2-42.2-42.2-23.2 0-42.2 19-42.2 42.2v30.3c0 1.6 0.1 3.1 0.3 4.7-0.1 1.2-0.2 2.4-0.2 3.7v211.6l-49.2-55.6c-15.6-17.6-42.7-19.3-60.3-3.7-17.6 15.6-19.3 42.7-3.7 60.3L481 720.5c4.1 4.7 9 8.2 14.4 10.6 0.1 0 0.2 0.1 0.3 0.1l1.5 0.6c0.2 0.1 0.4 0.2 0.6 0.2 0.4 0.2 0.8 0.3 1.2 0.4 0.3 0.1 0.6 0.2 0.8 0.3 0.3 0.1 0.7 0.2 1 0.3s0.7 0.2 1 0.3 0.6 0.2 0.9 0.2c0.4 0.1 0.8 0.2 1.1 0.3 0.3 0.1 0.6 0.1 0.8 0.2 0.4 0.1 0.8 0.2 1.2 0.2 0.3 0 0.5 0.1 0.8 0.1 0.4 0.1 0.8 0.1 1.2 0.2 0.3 0 0.6 0.1 0.8 0.1 0.4 0 0.8 0.1 1.2 0.1 0.3 0 0.6 0 0.9 0.1h4.2c0.3 0 0.6 0 0.9-0.1 0.4 0 0.8-0.1 1.2-0.1 0.3 0 0.6-0.1 0.8-0.1 0.4 0 0.8-0.1 1.2-0.2 0.3 0 0.5-0.1 0.8-0.1 0.4-0.1 0.8-0.1 1.2-0.2 0.3-0.1 0.6-0.1 0.8-0.2 0.4-0.1 0.8-0.2 1.1-0.3s0.6-0.1 0.9-0.2c0.3-0.1 0.7-0.2 1-0.3s0.7-0.2 1-0.3 0.6-0.2 0.8-0.3c0.4-0.1 0.8-0.3 1.2-0.4 0.2-0.1 0.4-0.2 0.6-0.2l1.5-0.6c0.1 0 0.2-0.1 0.3-0.1 5.3-2.4 10.3-5.9 14.4-10.6L668 581.1c16-17.6 14.3-44.8-3.3-60.3z" p-id="8263" fill="#54b780"></path></svg>
