<svg t="1648730351788" class="icon" viewBox="0 0 1024 1024" version="1.1" xmlns="http://www.w3.org/2000/svg" p-id="2261" width="32" height="32"><path d="M795 448H623.8l185.4-185.4c14.1-14.1 14.1-36.9 0-50.9-14.1-14.1-36.9-14.1-50.9 0L582 388V219c0-19.9-16.1-36-36-36s-36 16.1-36 36v265c0 19.9 16.1 36 36 36h249c19.9 0 36-16.1 36-36s-16.1-36-36-36zM458 524H209c-19.9 0-36 16.1-36 36s16.1 36 36 36h171.2L194.8 781.4c-14.1 14.1-14.1 36.9 0 50.9 7 7 16.2 10.5 25.5 10.5 9.2 0 18.4-3.5 25.5-10.5L422 656v169c0 19.9 16.1 36 36 36s36-16.1 36-36V560c0-19.9-16.1-36-36-36z" p-id="2262"></path></svg>
