<svg t="1648730340101" class="icon" viewBox="0 0 1024 1024" version="1.1" xmlns="http://www.w3.org/2000/svg" p-id="2063" width="32" height="32"><path d="M801 179H552c-19.9 0-36 16.1-36 36s16.1 36 36 36h171.3L537.8 436.4c-14.1 14.1-14.1 36.8 0 50.9 7 7 16.2 10.6 25.5 10.6 9.2 0 18.4-3.5 25.4-10.5L765 311.1V480c0 19.9 16.1 36 36 36s36-16.1 36-36V215c0-19.9-16.1-36-36-36zM464 785H292.7l185.5-185.4c14.1-14.1 14.1-36.8 0-50.9-14.1-14.1-36.8-14.1-50.9 0L251 724.9V556c0-19.9-16.1-36-36-36s-36 16.1-36 36v265c0 19.9 16.1 36 36 36h249c19.9 0 36-16.1 36-36s-16.1-36-36-36z" p-id="2064"></path></svg>
