<svg t="1648818676862" class="icon" viewBox="0 0 1024 1024" version="1.1" xmlns="http://www.w3.org/2000/svg" p-id="3343" width="64" height="64"><path d="M98.24 228.32h540c33.6 0 60.96-26.88 60.96-60.48 0-33.12-26.88-60.48-60.96-60.48H98.24c-33.6 0-60.96 26.88-60.96 60.48 0 33.12 27.36 60.48 60.96 60.48z m0 271.68h540c33.6 0 60.96-26.88 60.96-60.48 0-33.12-26.88-60.48-60.96-60.48H98.24C64.64 379.52 37.28 406.4 37.28 440c0 33.12 27.36 60 60.96 60z m180.96 176.64H98.72c-34.56 0-61.92 24.96-61.92 56.64 0 31.2 27.84 56.64 61.92 56.64h180c34.56 0 61.92-24.96 61.92-56.64 0.48-31.68-27.36-56.64-61.44-56.64zM926.24 101.12h-92.16c-33.12 0-60.96 24.96-60.96 56.64v399.84c-25.44-10.56-54.72-16.8-84.48-16.8h-28.8c-114.24 0-206.4 85.44-206.4 191.04 0 105.6 92.64 191.04 206.4 191.04h28.8c114.24 0 206.4-85.44 206.4-191.04V214.4h30.72c33.12 0 60.96-24.96 60.96-56.64 0.48-31.2-26.4-56.64-60.48-56.64z" p-id="3344"></path></svg>
