<svg t="1648878568852" class="icon" viewBox="0 0 1024 1024" version="1.1" xmlns="http://www.w3.org/2000/svg" p-id="2760" width="64" height="64"><path d="M512 1024A512 512 0 1 1 1024 512 512 512 0 0 1 512 1024z m0-971.485316A459.485316 459.485316 0 1 0 971.47871 512 459.491923 459.491923 0 0 0 512 52.514684z m326.490839 403.396542l-210.481549-58.301936 1.45342-5.430503-3.831742 2.180129-16.317936-28.843768 189.671226-107.916387 16.384 28.843768-152.146581 86.544516 184.055742 50.962168z m-209.490581 59.345755h31.710968a144.27169 144.27169 0 0 1-284.07742 0h36.731871V515.303226h215.634581v-0.046245zM424.794839 541.729032a110.658065 110.658065 0 0 0 192.776258 0H424.794839z m-30.455742-151.479329l1.453419 5.417291-210.349419 58.176412-8.720516-31.889341 183.923613-50.869678L208.631742 284.738065l16.317935-28.78431 189.539097 107.685161-16.317935 28.78431z" fill="" p-id="2761"></path></svg>
