<svg t="1648712191381" class="icon" viewBox="0 0 1024 1024" version="1.1" xmlns="http://www.w3.org/2000/svg" p-id="2084" width="64" height="64"><path d="M512 1024A512 512 0 1 1 1024 512 512 512 0 0 1 512 1024z m0-971.485316A459.485316 459.485316 0 1 0 971.47871 512 459.491923 459.491923 0 0 0 512 52.514684zM693.677419 369.96129h112.309678v99.096775h-112.309678V369.96129zM515.303226 636.716594a139.78591 139.78591 0 0 1-39.63871-5.774039v-38.733626a108.345806 108.345806 0 0 0 42.083097 8.548748 112.448413 112.448413 0 0 0 107.156645-82.197471h31.512774A145.566555 145.566555 0 0 1 515.303226 636.716594zM218.012903 369.96129h112.309678v99.096775H218.012903V369.96129z" fill="" p-id="2085"></path></svg>
