<svg t="1648712161532" class="icon" viewBox="0 0 1024 1024" version="1.1" xmlns="http://www.w3.org/2000/svg" p-id="1934" width="64" height="64"><path d="M512 1024A512 512 0 1 1 1024 512 512 512 0 0 1 512 1024z m0-971.491923A459.491923 459.491923 0 1 0 971.47871 512 459.491923 459.491923 0 0 0 512 52.508077z m331.445677 449.641704l-211.604645-57.813058 1.519484-5.384258-3.831742 2.160309-16.450064-28.605935 190.662193-107.024516 16.450065 28.612542L667.251613 419.912671l184.980645 50.545961zM613.805419 541.729032a159.876129 159.876129 0 0 0 14.930581-26.425806h0.264258v-0.046245h31.710968a151.571819 151.571819 0 0 1-27.152516 60.50849l27.21858 77.070864c11.297032 28.856981-8.786581 59.742142-37.656774 70.999536s-72.935226-6.262916-84.166193-35.119897L517.681548 634.219355a146.498065 146.498065 0 0 1-141.047742-118.916129h31.975226a151.287742 151.287742 0 0 0 23.452903 37.359484A110.433445 110.433445 0 0 0 617.571097 541.729032h-3.765678z m1.849807 53.921858a142.501161 142.501161 0 0 1-71.746065 36.335484l18.432 49.257703a38.779871 38.779871 0 0 0 51.133936 22.693162 41.534761 41.534761 0 0 0 22.924387-52.851613zM397.047742 437.036594l1.519484 5.371045-211.406452 57.694142L178.374194 468.476697l184.782451-50.440258-152.741161-85.646039 16.450064-28.546477 190.464 106.799896-16.450064 28.546478z" fill="" p-id="1935"></path></svg>
