<svg t="1648713015606" class="icon" viewBox="0 0 1024 1024" version="1.1" xmlns="http://www.w3.org/2000/svg" p-id="107699" width="64" height="64"><path d="M965.53106 190.413661c-13.554671-4.433098-21.80534 54.605025-21.80534 54.605026l-29.532158-11.524745s9.101929-51.730387 22.067266-55.33187 19.709932-49.536757 19.709933-49.536756l29.532157 11.524744s-6.482669 54.703247-19.971858 50.263601z m-36.800604 275.91286c16.697783-4.865276 25.406823-66.863162 25.406823-66.863162l37.979271 15.551856s-8.316151 73.836942-25.73423 67.845385-28.026083 73.692883-28.026084 73.692883l-37.979271-15.551856s11.655707-69.816378 28.353491-74.675106z m-152.964791-147.588759c-25.013934 8.250669-36.997049-93.468297-36.997049-93.468297l54.546092-21.425547s12.441485 85.414072 36.407716 92.112829 40.729495 102.877989 40.729494 102.877989l-54.546091 21.425548s-15.191709-109.773191-40.140162-101.522522z m15.65008 190.917869c-2.488297 10.876478-11.655707 19.709932-26.061638 26.467624a345.041682 345.041682 0 1 1-526.667726-128.998561 35.661226 35.661226 0 0 1-5.434965-26.094378c6.220743-26.637875 51.86135-41.142028 118.259594-42.287955L603.680277 0l76.220469 408.571836c73.535727 32.891359 118.52152 71.040882 111.514999 101.083795z m-124.152929-28.569579l-4.649187-24.968097a5.101009 5.101009 0 0 0-0.654815-0.32086c0.196445-0.130963 0.327408-0.301215 0.523852-0.432178L589.208864 62.423516 347.778564 386.773043a38.300131 38.300131 0 0 0 3.208594 5.893336c-6.482669 1.499526-10.47704 3.784831-11.197337 6.947587-3.666964 15.846524 72.488023 46.917497 170.055462 69.410393 85.584324 19.709932 159.185533 26.271179 178.502576 16.92042z m17.87645-44.258948l3.666964 19.742673c20.561192 11.43307 31.82401 22.080363 29.859565 30.350677-5.042076 21.942852-99.728329 18.878317-211.37429-6.849366-101.823737-23.455474-182.562429-57.623722-192.188211-80.123166l-7.792298-1.787645 26.192601-35.18976c-37.324456 2.61926-61.618094 11.321752-65.088614 26.192601-7.85778 33.965255 94.948179 86.651672 229.64363 117.683357s250.335785 28.667802 258.193565-5.297454c4.256298-18.249695-23.573341-41.91471-71.112912-64.721917z m46.098978 109.714258c-55.462833 10.732418-143.142565 5.965365-238.680077-16.042968-102.085663-23.527504-187.473542-60.825768-230.298445-97.004298a309.236396 309.236396 0 1 0 468.978522 113.047266z m-280.129869 368.523348a222.119805 222.119805 0 0 1-222.506145-221.753108c0-1.48643 0.065482-2.953216 0.065481-4.433098h444.815847c0.065482 1.479882 0.130963 2.946668 0.130963 4.433098a222.119805 222.119805 0 0 1-222.506146 221.753108z m0-24.391859a197.662464 197.662464 0 0 0 139.082712-56.916523 178.928206 178.928206 0 0 0-280.65372-2.494845 197.642819 197.642819 0 0 0 141.571008 59.411368z m-197.230285-179.62231a196.031974 196.031974 0 0 0 40.729494 103.107174 201.185369 201.185369 0 0 1 310.840693 2.769867 196.234967 196.234967 0 0 0 42.890384-105.877041H253.87809z m319.615214-128.618768h75.631135v66.529207H573.493304v-66.529207z m-320.400992 0h75.631135v66.529207H253.092312v-66.529207z m62.796761-401.113492c-24.4246-8.231025-39.288902 101.17547-39.288902 101.175469l-53.301943-21.353518s16.370376-95.851824 39.812753-102.530936 35.621937-91.798519 35.621938-91.798519l53.301943 21.353518s-11.721189 101.378462-36.145789 93.153986zM112.961896 450.794309c-14.929783-11.341396-51.599424 61.166272-51.599424 61.166271L29.538462 484.831594s34.44327-62.750924 52.254239-61.978243 46.819274-55.495573 46.819274-55.495573l31.82401 27.128986s-32.478825 67.655489-47.474089 56.307545z m-6.941039-148.904937s-40.729495-58.213056-31.954974-73.588113-28.615417-65.887488-28.615416-65.887488l38.568605-15.96439s45.968015 58.73036 29.073787 66.856614 31.562084 72.618986 31.562084 72.618986z" fill="" p-id="107700"></path></svg>
