<svg t="1648712151869" class="icon" viewBox="0 0 1158 1024" version="1.1" xmlns="http://www.w3.org/2000/svg" p-id="1784" width="64" height="64"><path d="M1158.078995 514.519342a57.889658 57.889658 0 0 1-62.450497 48.963346 87.127539 87.127539 0 0 1-33.414722-15.420625c-0.673684 7.619365-1.549473 15.184835-2.559999 22.703148 31.528407 10.246732 60.429446 22.716621 73.296809 36.554088a93.325431 93.325431 0 0 1-5.995787 132.122887c-36.109457 33.333879-91.014695 39.450929-126.450468 8.35368a502.291979 502.291979 0 0 1-349.035629 249.606622A143.656355 143.656355 0 0 1 567.797162 1023.999528a140.927935 140.927935 0 0 1-79.292595-24.185252 501.968611 501.968611 0 0 1-357.321941-240.417573 102.285427 102.285427 0 0 1-99.233639-24.037042 92.294694 92.294694 0 0 1-6.063155-131.49636 124.234048 124.234048 0 0 1 40.690508-24.36041c-1.010526-6.426944-1.751578-12.91452-2.492631-19.408833-0.202105 0-0.471579 0.114526-0.673683 0.141473A58.024394 58.024394 0 0 1 0.690054 511.501238a51.927555 51.927555 0 0 1 46.214716-60.119551 53.894712 53.894712 0 0 1 16.437887 1.68421 501.618295 501.618295 0 0 1 999.67954 13.857677c18.863149-7.956207 37.591562-14.005888 49.044188-12.799994a52.116187 52.116187 0 0 1 46.01261 60.395762z m-51.06524 203.391906a63.898918 63.898918 0 0 0 4.042104-90.401642c-23.915778-25.761672-137.364147-53.146923-137.364147-53.146923s18.661044 114.876579 42.576822 140.644988a64.357023 64.357023 0 0 0 90.745221 2.903577z m-538.94712 279.100503a100.197006 100.197006 0 0 0 62.248393-22.170937 105.620162 105.620162 0 0 0-121.80205 1.414736 97.798692 97.798692 0 0 0 59.553657 20.756201z m-109.877844-129.347308a143.124145 143.124145 0 0 0 25.195778 82.418488 137.276568 137.276568 0 0 1 169.970448 0.673684 145.899722 145.899722 0 0 0 27.082093-85.914908V566.884792a139.007936 139.007936 0 0 1-222.248319 0.545684v300.207019zM54.584766 630.709604c-23.983147 25.640409-28.901039 59.203341-2.627367 83.24712a64.983549 64.983549 0 0 0 91.082064-2.890104c24.050515-25.647146 42.711559-133.254675 42.711559-133.254676s-107.11574 27.230303-131.166256 52.870713z m-5.052629-162.108557a35.536826 35.536826 0 0 0-31.663143 41.128402 39.74735 39.74735 0 0 0 42.913664 33.347354c20.614727-2.155788 71.747335-45.33219 71.747336-45.33219s-62.450498-31.326301-82.997857-29.170513z m513.01029-417.010334a450.512635 450.512635 0 0 0-449.145056 420.223807 671.710006 671.710006 0 0 1 44.934716 23.248831 545.683959 545.683959 0 0 1-55.309448 45.716189 65.172181 65.172181 0 0 0 10.307364-6.534733q1.010526 14.201257 2.829472 28.146513c49.650503-14.544835 99.705217-23.430726 99.705217-23.430726s-13.541046 138.778883-43.51998 188.840334A451.610739 451.610739 0 0 0 438.651958 936.420621a123.230259 123.230259 0 0 1-7.477891-42.085033V516.041868a9.431575 9.431575 0 0 1 0.471578-3.085473c-0.606316-2.36463-1.279999-4.715787-1.751578-7.107365h31.258933a149.012142 149.012142 0 0 0 23.03999 36.682089 108.146477 108.146477 0 0 0 181.827284-10.691364h-3.705261a158.05298 158.05298 0 0 0 14.686309-25.943567h0.202105s0.067368 0 0.067368-0.047158h10.374733c0.269474-0.518737 0.606316-0.983578 0.875789-1.509052h6.602102a12.261047 12.261047 0 0 1 5.726313 1.509052h7.477891c-0.471579 2.229894-1.077894 4.392419-1.616841 6.588629a10.778942 10.778942 0 0 1 0.741052 3.604209v375.464248a126.356152 126.356152 0 0 1-6.66947 40.508613 452.089055 452.089055 0 0 0 270.28198-239.474416c-18.728412-61.453445-27.351566-150.467299-27.351566-150.467299s31.595775 5.652208 69.322073 15.312835a329.822164 329.822164 0 0 0 0-48.350294c-7.343155-6.561681-11.991573-11.06189-11.991573-11.06189s4.513682-2.613894 11.654731-6.494312A450.654108 450.654108 0 0 0 562.542427 51.550292z m546.896591 419.83307c-20.479991-2.162525-82.728383 29.291776-82.728383 29.291776s50.997871 43.378506 71.477861 45.541032a39.646298 39.646298 0 0 0 42.778928-33.502301 35.705247 35.705247 0 0 0-31.528406-41.370928z m-303.157756-94.538062a110.261844 110.261844 0 0 0-105.02732 80.687121h-35.772615a140.496777 140.496777 0 0 1 276.681978 0h-30.854723a110.261844 110.261844 0 0 0-105.02732-80.727542z m-476.15978 0a110.261844 110.261844 0 0 0-105.02732 80.687121h-35.705247a140.456356 140.456356 0 0 1 276.614609 0h-30.854722A110.261844 110.261844 0 0 0 330.121482 376.8453z" fill="" p-id="1785"></path></svg>
