<svg t="1648712137395" class="icon" viewBox="0 0 1024 1024" version="1.1" xmlns="http://www.w3.org/2000/svg" p-id="1634" width="64" height="64"><path d="M512 1024A512 512 0 1 1 1024 512 512 512 0 0 1 512 1024z m0-971.491923A459.491923 459.491923 0 1 0 971.47871 512 459.491923 459.491923 0 0 0 512 52.508077z m326.490839 403.396542l-210.481549-58.295329 1.45342-5.430503-3.831742 2.180129-16.317936-28.843768 189.671226-107.922993 16.384 28.850374-152.146581 86.544516 184.055742 50.962168zM622.327742 515.256981h36.203355c-13.675355 67.88129 15.194839 323.207432-139.594323 323.755767H518.210065c-157.035355-0.515303-127.70271-255.874477-141.576259-323.755767h36.731871V515.303226H622.327742v-0.046245z m-103.72129 287.380645c33.957161-0.964542 55.956645-20.585703 70.292645-49.284129a109.27071 109.27071 0 0 0-139.660387 3.514632c14.534194 26.762735 36.335484 44.871019 69.367742 45.815742zM416.867097 541.729032c2.840774 43.853626 0.990968 120.666839 18.101677 179.655845a140.274787 140.274787 0 0 1 166.284387-0.858838c16.582194-58.883303 14.798452-135.154787 17.573162-178.797007H416.867097z m-22.528-151.479329l1.453419 5.417291-210.349419 58.176412-8.720516-31.889341 183.923613-50.869678L208.631742 284.738065l16.317935-28.78431 189.539097 107.685161-16.317935 28.78431z" fill="" p-id="1635"></path></svg>
