<svg t="1649241830267" class="icon" viewBox="0 0 1024 1024" version="1.1" xmlns="http://www.w3.org/2000/svg" p-id="5753" width="64" height="64"><path d="M853.333333 170.666667h-682.666666c-62.577778 0-113.777778 51.2-113.777778 113.777777v455.111112c0 62.577778 51.2 113.777778 113.777778 113.777777h682.666666c62.577778 0 113.777778-51.2 113.777778-113.777777v-455.111112c0-62.577778-51.2-113.777778-113.777778-113.777777m56.888889 568.888889c0 34.133333-22.755556 56.888889-56.888889 56.888888h-682.666666c-34.133333 0-56.888889-22.755556-56.888889-56.888888v-455.111112c0-34.133333 22.755556-56.888889 56.888889-56.888888h682.666666c34.133333 0 56.888889 22.755556 56.888889 56.888888v455.111112m-512-56.888889l284.444445-170.666667-284.444445-170.666667v341.333334" fill="#f63434" p-id="5754"></path></svg>
