<svg t="1648713754114" class="icon" viewBox="0 0 1024 1024" version="1.1" xmlns="http://www.w3.org/2000/svg" p-id="4558" width="64" height="64"><path d="M703.887991 638.773231v-376.564714h320.32536v100.957747h-192.016001v462.630552a197.733811 197.733811 0 0 1-134.027169 188.901075 189.029086 189.029086 0 0 1-215.100592-74.544878 203.366281 203.366281 0 0 1 3.669639-234.046171 188.730394 188.730394 0 0 1 217.148763-67.333611z m-64.005334 253.11976a66.138845 66.138845 0 1 0-64.005334-66.096175 65.11476 65.11476 0 0 0 63.919993 66.096175z" p-id="4559"></path><path d="M0 725.393783m42.670223 0l256.021335 0q42.670223 0 42.670222 42.670222l0 21.335112q0 42.670223-42.670222 42.670222l-256.021335 0q-42.670223 0-42.670223-42.670222l0-21.335112q0-42.670223 42.670223-42.670222Z" p-id="4560"></path><path d="M0 362.696891m42.670223 0l469.372447 0q42.670223 0 42.670223 42.670223l0 21.335111q0 42.670223-42.670223 42.670223l-469.372447 0q-42.670223 0-42.670223-42.670223l0-21.335111q0-42.670223 42.670223-42.670223Z" p-id="4561"></path><path d="M0 0m42.670223 0l853.40445 0q42.670223 0 42.670222 42.670223l0 21.335111q0 42.670223-42.670222 42.670222l-853.40445 0q-42.670223 0-42.670223-42.670222l0-21.335111q0-42.670223 42.670223-42.670223Z" p-id="4562"></path></svg>
