<svg t="1648100540002" class="icon" viewBox="0 0 1024 1024" version="1.1" xmlns="http://www.w3.org/2000/svg" p-id="1341" width="32" height="32"><path d="M817 160h38c30.928 0 56 25.072 56 56v593c0 30.928-25.072 56-56 56h-38c-30.928 0-56-25.072-56-56V216c0-30.928 25.072-56 56-56zM648.314 546.191l-422.304 303.4c-32.294 23.201-77.282 15.83-100.484-16.464A72 72 0 0 1 112 791.117V232.064c0-39.764 32.235-72 72-72a72 72 0 0 1 39.95 12.1l422.762 281.959c25.73 17.16 32.677 51.93 15.517 77.66a56 56 0 0 1-13.915 14.408z" p-id="1342" fill="#54b780"></path></svg>
