<svg t="1648540722531" class="icon" viewBox="0 0 1170 1024" version="1.1" xmlns="http://www.w3.org/2000/svg" p-id="4209" width="32" height="32"><path d="M489.363204 190.157574h-396.405405A93.030936 93.030936 0 0 1 0 96.980363v-4.095702C0 41.688391 41.688391 0 93.030936 0h396.405405c51.342545 0 92.957799 41.688391 92.957799 93.030936v4.095702c0 51.415683-41.688391 93.030936-93.030936 93.030936" p-id="4210" fill="#393939"></path><path d="M352.961713 575.007249H95.078787a95.078787 95.078787 0 1 1 0-190.157574h257.882926a95.078787 95.078787 0 1 1 0 190.157574" p-id="4211" fill="#393939"></path><path d="M292.330702 960.0032H91.056223A91.129361 91.129361 0 0 1 0 868.873839v-7.898853C0 810.656366 40.810741 769.845626 91.129361 769.845626h201.274478c50.31862 0 91.056223 40.737603 91.056223 91.056223v7.97199c0 50.31862-40.810741 91.129361-91.056223 91.129361" p-id="4212" fill="#393939"></path><path d="M1062.68829 214.878059c-87.399347 58.29061-203.90743-4.168839-203.90743-4.168839s112.339244 524.39608 104.001566 566.084471c0 0 0-4.168839 0 0C962.782426 901.639452 858.78086 1005.641018 729.693122 1005.641018a228.189089 228.189089 0 0 1-228.847326-228.920465c0-124.845761 104.001566-228.920464 228.920464-228.920464 45.710955 0 95.663887 16.675357 120.676922 45.85723l-108.243542-420.394514S696.415547-18.284382 858.78086 6.80179C975.288943 27.572848 942.011368 106.634517 1150.087636 40.079366c4.168839-4.168839 12.506517 108.243542-87.399346 174.798693" p-id="4213" fill="#393939"></path></svg>
