<svg t="1648715485027" class="icon" viewBox="0 0 1024 1024" version="1.1" xmlns="http://www.w3.org/2000/svg" p-id="1290" width="64" height="64"><path d="M768 224a32 32 0 0 1 32 32v512a32 32 0 0 1-64 0V256a32 32 0 0 1 32-32z m-386.336 31.36l220.032 183.36a96 96 0 0 1 0 147.52l-220.032 183.36a96 96 0 0 1-157.44-73.76v-366.72a96 96 0 0 1 157.44-73.76zM295.616 308.64a32 32 0 0 0-7.424 20.48v366.72a32 32 0 0 0 52.48 24.576l220.032-183.36a32 32 0 0 0 6.496-41.824l-2.4-3.264a32 32 0 0 0-4.096-4.096l-220.032-183.36a32 32 0 0 0-45.056 4.128z" p-id="1291"></path></svg>
