<svg t="1648106713428" class="icon" viewBox="0 0 1024 1024" version="1.1" xmlns="http://www.w3.org/2000/svg" p-id="2164" width="32" height="32"><path d="M256 768H51.2c-28.16 0-51.2-23.04-51.2-51.2V308.224C0 279.552 23.552 256 52.224 256H256v512zM512 147.456v728.576c0 19.968-21.504 32.256-38.912 22.016L256 768V256l217.088-130.56c17.408-10.24 38.912 2.048 38.912 22.016zM623.104 656.896c-19.968-19.968-19.968-52.224 0-72.192l217.088-217.088c19.968-19.968 52.224-19.968 72.192 0 19.968 19.968 19.968 52.224 0 72.192l-217.088 217.088c-19.456 19.968-52.224 19.968-72.192 0z" fill="#414141" p-id="2165"></path><path d="M623.104 367.104c19.968-19.968 52.224-19.968 72.192 0l217.088 217.088c19.968 19.968 19.968 52.224 0 72.192-19.968 19.968-52.224 19.968-72.192 0l-217.088-217.088c-19.968-19.456-19.968-52.224 0-72.192z" fill="#414141" p-id="2166"></path></svg>
