<svg t="1648558084321" class="icon" viewBox="0 0 1024 1024" version="1.1" xmlns="http://www.w3.org/2000/svg" p-id="17971" width="32" height="32"><path d="M801 1010.5H221c-64.5 0-117-52.5-117-117v-650h814v650c0 64.5-52.5 117-117 117z m-603-673v556c0 12.7 10.3 23 23 23h580c12.7 0 23-10.3 23-23v-556H198z" p-id="17972"></path><path d="M771.5 336.5h-521c-48 0-87-39-87-87v-151c0-48 39-87 87-87h521c48 0 87 39 87 87v151c0 48-39 87-87 87z m-514-94h507v-137h-507v137z" p-id="17973"></path><path d="M959 338.3H63c-26 0-47-21-47-47s21-47 47-47h896c26 0 47 21 47 47 0 25.9-21 47-47 47z" p-id="17974"></path></svg>
